<svg width="247" height="87" viewBox="0 0 247 87" fill="none" xmlns="http://www.w3.org/2000/svg">
<path d="M21.3182 19.5551C21.2273 18.4187 20.8011 17.5323 20.0398 16.896C19.2898 16.2596 18.1477 15.9414 16.6136 15.9414C15.6364 15.9414 14.8352 16.0607 14.2102 16.2994C13.5966 16.5266 13.142 16.8391 12.8466 17.2369C12.5511 17.6346 12.3977 18.0891 12.3864 18.6005C12.3636 19.021 12.4375 19.4016 12.608 19.7426C12.7898 20.0721 13.0739 20.3732 13.4602 20.646C13.8466 20.9073 14.3409 21.146 14.9432 21.3619C15.5455 21.5778 16.2614 21.771 17.0909 21.9414L19.9545 22.5551C21.8864 22.9641 23.5398 23.5039 24.9148 24.1744C26.2898 24.8448 27.4148 25.6346 28.2898 26.5437C29.1648 27.4414 29.8068 28.4528 30.2159 29.5778C30.6364 30.7028 30.8523 31.9301 30.8636 33.2596C30.8523 35.5551 30.2784 37.4982 29.142 39.0891C28.0057 40.6801 26.3807 41.8903 24.267 42.7198C22.1648 43.5494 19.6364 43.9641 16.6818 43.9641C13.6477 43.9641 11 43.5153 8.73864 42.6176C6.48864 41.7198 4.73864 40.3391 3.48864 38.4755C2.25 36.6005 1.625 34.2028 1.61364 31.2823H10.6136C10.6705 32.3505 10.9375 33.2482 11.4148 33.9755C11.892 34.7028 12.5625 35.2539 13.4261 35.6289C14.3011 36.0039 15.3409 36.1914 16.5455 36.1914C17.5568 36.1914 18.4034 36.0664 19.0852 35.8164C19.767 35.5664 20.2841 35.2198 20.6364 34.7766C20.9886 34.3335 21.1705 33.8278 21.1818 33.2596C21.1705 32.7255 20.9943 32.2596 20.6534 31.8619C20.3239 31.4528 19.7784 31.0891 19.017 30.771C18.2557 30.4414 17.2273 30.1346 15.9318 29.8505L12.4545 29.1005C9.36364 28.4301 6.92614 27.3107 5.14205 25.7426C3.36932 24.163 2.48864 22.0096 2.5 19.2823C2.48864 17.0664 3.07955 15.1289 4.27273 13.4698C5.47727 11.7994 7.14205 10.4982 9.26705 9.56642C11.4034 8.6346 13.8523 8.16869 16.6136 8.16869C19.4318 8.16869 21.8693 8.64028 23.9261 9.58346C25.983 10.5266 27.5682 11.8562 28.6818 13.5721C29.8068 15.2766 30.375 17.271 30.3864 19.5551H21.3182ZM35.4287 43.5551V8.64596H50.4969C53.0878 8.64596 55.3549 9.15733 57.2981 10.1801C59.2413 11.2028 60.7526 12.6403 61.8322 14.4926C62.9117 16.3448 63.4515 18.5096 63.4515 20.9869C63.4515 23.4869 62.8947 25.6516 61.781 27.4812C60.6788 29.3107 59.1276 30.7198 57.1276 31.7085C55.139 32.6971 52.8151 33.1914 50.156 33.1914H41.156V25.8278H48.2469C49.3606 25.8278 50.3094 25.6346 51.0935 25.2482C51.889 24.8505 52.4969 24.288 52.9174 23.5607C53.3492 22.8335 53.5651 21.9755 53.5651 20.9869C53.5651 19.9869 53.3492 19.1346 52.9174 18.4301C52.4969 17.7141 51.889 17.1687 51.0935 16.7937C50.3094 16.4073 49.3606 16.2141 48.2469 16.2141H44.906V43.5551H35.4287ZM77.366 8.64596V43.5551H67.8887V8.64596H77.366ZM115.408 21.7369H105.795C105.727 20.9414 105.545 20.2198 105.249 19.5721C104.965 18.9244 104.567 18.3676 104.056 17.9016C103.556 17.4244 102.948 17.0607 102.232 16.8107C101.516 16.5494 100.704 16.4187 99.7948 16.4187C98.2039 16.4187 96.8573 16.8051 95.755 17.5778C94.6641 18.3505 93.8345 19.4585 93.2664 20.9016C92.7095 22.3448 92.4311 24.0778 92.4311 26.1005C92.4311 28.2369 92.7152 30.0266 93.2834 31.4698C93.863 32.9016 94.6982 33.9812 95.7891 34.7085C96.88 35.4244 98.1925 35.7823 99.7266 35.7823C100.602 35.7823 101.386 35.6744 102.079 35.4585C102.772 35.2312 103.374 34.9073 103.886 34.4869C104.397 34.0664 104.812 33.5607 105.13 32.9698C105.46 32.3676 105.681 31.6914 105.795 30.9414L115.408 31.0096C115.295 32.4869 114.88 33.9926 114.164 35.5266C113.448 37.0494 112.431 38.4585 111.113 39.7539C109.806 41.038 108.187 42.0721 106.255 42.8562C104.323 43.6403 102.079 44.0323 99.522 44.0323C96.3175 44.0323 93.4425 43.3448 90.897 41.9698C88.363 40.5948 86.3573 38.5721 84.88 35.9016C83.4141 33.2312 82.6811 29.9641 82.6811 26.1005C82.6811 22.2141 83.4311 18.9414 84.9311 16.2823C86.4311 13.6119 88.4539 11.5948 90.9993 10.2312C93.5448 8.85619 96.3857 8.16869 99.522 8.16869C101.727 8.16869 103.755 8.46982 105.607 9.0721C107.46 9.67437 109.085 10.5551 110.482 11.7141C111.88 12.8619 113.005 14.2766 113.857 15.9585C114.71 17.6403 115.227 19.5664 115.408 21.7369ZM120.668 43.5551V8.64596H145.827V16.2823H130.145V22.2823H144.532V29.9187H130.145V35.9187H145.759V43.5551H120.668ZM2.5 83.5551V48.646H17.5682C20.1591 48.646 22.4261 49.1176 24.3693 50.0607C26.3125 51.0039 27.8239 52.3619 28.9034 54.1346C29.983 55.9073 30.5227 58.0323 30.5227 60.5096C30.5227 63.0096 29.9659 65.1176 28.8523 66.8335C27.75 68.5494 26.1989 69.8448 24.1989 70.7198C22.2102 71.5948 19.8864 72.0323 17.2273 72.0323H8.22727V64.6687H15.3182C16.4318 64.6687 17.3807 64.5323 18.1648 64.2596C18.9602 63.9755 19.5682 63.5266 19.9886 62.913C20.4205 62.2994 20.6364 61.4982 20.6364 60.5096C20.6364 59.5096 20.4205 58.6971 19.9886 58.0721C19.5682 57.4357 18.9602 56.9698 18.1648 56.6744C17.3807 56.3676 16.4318 56.2141 15.3182 56.2141H11.9773V83.5551H2.5ZM22.9545 67.5323L31.6818 83.5551H21.3864L12.8636 67.5323H22.9545ZM35.5225 83.5551V48.646H60.6816V56.2823H44.9998V62.2823H59.3861V69.9187H44.9998V75.9187H60.6134V83.5551H35.5225ZM66.3419 83.5551V48.646H81.4101C84.001 48.646 86.268 49.1573 88.2112 50.1801C90.1544 51.2028 91.6657 52.6403 92.7453 54.4926C93.8248 56.3448 94.3646 58.5096 94.3646 60.9869C94.3646 63.4869 93.8078 65.6516 92.6941 67.4812C91.5919 69.3107 90.0407 70.7198 88.0407 71.7085C86.0521 72.6971 83.7282 73.1914 81.0691 73.1914H72.0691V65.8278H79.1601C80.2737 65.8278 81.2226 65.6346 82.0066 65.2482C82.8021 64.8505 83.4101 64.288 83.8305 63.5607C84.2623 62.8335 84.4782 61.9755 84.4782 60.9869C84.4782 59.9869 84.2623 59.1346 83.8305 58.4301C83.4101 57.7141 82.8021 57.1687 82.0066 56.7937C81.2226 56.4073 80.2737 56.2141 79.1601 56.2141H75.8191V83.5551H66.3419ZM119.461 48.646H128.938V71.0096C128.938 73.6687 128.302 75.9698 127.029 77.913C125.768 79.8448 124.006 81.3391 121.745 82.396C119.484 83.4414 116.859 83.9641 113.87 83.9641C110.859 83.9641 108.222 83.4414 105.961 82.396C103.7 81.3391 101.938 79.8448 100.677 77.913C99.4269 75.9698 98.8019 73.6687 98.8019 71.0096V48.646H108.279V70.1914C108.279 71.271 108.518 72.2369 108.995 73.0891C109.472 73.9301 110.131 74.5891 110.972 75.0664C111.825 75.5437 112.791 75.7823 113.87 75.7823C114.961 75.7823 115.927 75.5437 116.768 75.0664C117.609 74.5891 118.268 73.9301 118.745 73.0891C119.222 72.2369 119.461 71.271 119.461 70.1914V48.646ZM134.402 83.5551V48.646H149.539C152.198 48.646 154.431 49.0039 156.238 49.7198C158.056 50.4357 159.425 51.4471 160.346 52.7539C161.277 54.0607 161.743 55.6005 161.743 57.3732C161.743 58.6573 161.459 59.8278 160.891 60.8846C160.334 61.9414 159.55 62.8278 158.539 63.5437C157.527 64.2482 156.346 64.7369 154.993 65.0096V65.3505C156.493 65.4073 157.857 65.788 159.084 66.4926C160.312 67.1857 161.289 68.146 162.016 69.3732C162.743 70.5891 163.107 72.021 163.107 73.6687C163.107 75.5778 162.607 77.2766 161.607 78.7653C160.618 80.2539 159.209 81.4244 157.38 82.2766C155.55 83.1289 153.368 83.5551 150.834 83.5551H134.402ZM143.88 75.9869H148.312C149.902 75.9869 151.096 75.6914 151.891 75.1005C152.687 74.4982 153.084 73.6119 153.084 72.4414C153.084 71.6232 152.897 70.9301 152.522 70.3619C152.147 69.7937 151.613 69.3619 150.92 69.0664C150.238 68.771 149.414 68.6232 148.448 68.6232H143.88V75.9869ZM143.88 62.7596H147.766C148.596 62.7596 149.329 62.6289 149.965 62.3676C150.601 62.1062 151.096 61.7312 151.448 61.2426C151.812 60.7426 151.993 60.1346 151.993 59.4187C151.993 58.3391 151.607 57.5153 150.834 56.9471C150.062 56.3676 149.084 56.0778 147.902 56.0778H143.88V62.7596ZM167.425 83.5551V48.646H176.902V75.9187H191.016V83.5551H167.425ZM205.284 48.646V83.5551H195.807V48.646H205.284ZM243.327 61.7369H233.713C233.645 60.9414 233.463 60.2198 233.167 59.5721C232.883 58.9244 232.486 58.3676 231.974 57.9016C231.474 57.4244 230.866 57.0607 230.15 56.8107C229.434 56.5494 228.622 56.4187 227.713 56.4187C226.122 56.4187 224.775 56.8051 223.673 57.5778C222.582 58.3505 221.753 59.4585 221.184 60.9016C220.628 62.3448 220.349 64.0778 220.349 66.1005C220.349 68.2369 220.633 70.0266 221.202 71.4698C221.781 72.9016 222.616 73.9812 223.707 74.7085C224.798 75.4244 226.111 75.7823 227.645 75.7823C228.52 75.7823 229.304 75.6744 229.997 75.4585C230.69 75.2312 231.292 74.9073 231.804 74.4869C232.315 74.0664 232.73 73.5607 233.048 72.9698C233.378 72.3676 233.599 71.6914 233.713 70.9414L243.327 71.0096C243.213 72.4869 242.798 73.9926 242.082 75.5266C241.366 77.0494 240.349 78.4585 239.031 79.7539C237.724 81.038 236.105 82.0721 234.173 82.8562C232.241 83.6403 229.997 84.0323 227.44 84.0323C224.236 84.0323 221.361 83.3448 218.815 81.9698C216.281 80.5948 214.275 78.5721 212.798 75.9016C211.332 73.2312 210.599 69.9641 210.599 66.1005C210.599 62.2141 211.349 58.9414 212.849 56.2823C214.349 53.6119 216.372 51.5948 218.917 50.2312C221.463 48.8562 224.304 48.1687 227.44 48.1687C229.645 48.1687 231.673 48.4698 233.525 49.0721C235.378 49.6744 237.003 50.5551 238.4 51.7141C239.798 52.8619 240.923 54.2766 241.775 55.9585C242.628 57.6403 243.145 59.5664 243.327 61.7369Z" fill="#FF3333"/>
<path d="M217.378 13.5813C208.438 23.4181 169.7 37.1896 162.25 43.0916C167.713 42.5998 171.19 42.108 176.653 40.6324C195.525 35.2222 229.297 29.3202 217.378 13.5813Z" fill="#FF3333"/>
<path d="M220.655 12.4746C209.716 13.8779 201.514 10.3045 200.25 9.04033L202.417 11.2075C207.37 15.646 217.951 22.1133 220.655 12.4746Z" fill="#33FF6D"/>
</svg>
